<svg width="0" height="0" class="hidden">
  <symbol fill="none" xmlns="http://www.w3.org/2000/svg" viewBox="0 0 12 6" id="ic-chevron">
    <path d="M1 1L6 5L11 1" stroke="#1E1E1E" stroke-width="1.5" stroke-linecap="round" stroke-linejoin="round"></path>
  </symbol>
  <symbol fill="none" xmlns="http://www.w3.org/2000/svg" viewBox="0 0 21 21" id="ic-search">
    <mask id="mask0_11703_3" maskUnits="userSpaceOnUse" x="0" y="0" width="20" height="20">
      <path fill-rule="evenodd" clip-rule="evenodd" d="M0 0H19.4768V19.477H0V0Z" fill="white"></path>
    </mask>
    <g mask="url(#mask0_11703_3)">
      <path fill-rule="evenodd" clip-rule="evenodd" d="M9.7388 1.5C5.1958 1.5 1.4998 5.195 1.4998 9.738C1.4998 14.281 5.1958 17.977 9.7388 17.977C14.2808 17.977 17.9768 14.281 17.9768 9.738C17.9768 5.195 14.2808 1.5 9.7388 1.5ZM9.7388 19.477C4.3688 19.477 -0.000198364 15.108 -0.000198364 9.738C-0.000198364 4.368 4.3688 0 9.7388 0C15.1088 0 19.4768 4.368 19.4768 9.738C19.4768 15.108 15.1088 19.477 9.7388 19.477Z" fill="#282a2d"></path>
    </g>
    <mask id="mask1_11703_3" maskUnits="userSpaceOnUse" x="15" y="15" width="6" height="6">
      <path fill-rule="evenodd" clip-rule="evenodd" d="M15.2399 15.7069H20.264V20.7217H15.2399V15.7069Z" fill="white"></path>
    </mask>
    <g mask="url(#mask1_11703_3)">
      <path fill-rule="evenodd" clip-rule="evenodd" d="M19.5142 20.7217C19.3232 20.7217 19.1312 20.6487 18.9842 20.5027L15.4602 16.9887C15.1672 16.6957 15.1662 16.2207 15.4592 15.9277C15.7512 15.6327 16.2262 15.6347 16.5202 15.9257L20.0442 19.4407C20.3372 19.7337 20.3382 20.2077 20.0452 20.5007C19.8992 20.6487 19.7062 20.7217 19.5142 20.7217Z" fill="#282a2d"></path>
    </g>
  </symbol>
  <symbol version="1.1" xmlns="http://www.w3.org/2000/svg" xmlns:xlink="http://www.w3.org/1999/xlink" viewBox="0 0 24 24" id="ic-plus">
    <g id="Iconly/Bulk/Plus" stroke="none" stroke-width="1" fill="none" fill-rule="evenodd">
      <g id="Plus" transform="translate(2.000000, 2.000000)" fill="#000" fill-rule="nonzero">
        <path d="M14.6666667,0 L5.33333333,0 C1.92888889,0 0,1.92888889 0,5.33333333 L0,14.6666667 C0,18.0622222 1.92,20 5.33333333,20 L14.6666667,20 C18.0711111,20 20,18.0622222 20,14.6666667 L20,5.33333333 C20,1.92888889 18.0711111,0 14.6666667,0 Z" id="Path_34200" fill="#1f6bff"></path>
        <path d="M13.3204549,10.7083369 L10.7495202,10.7083369 L10.7495202,13.256979 C10.7495202,13.6673381 10.4139486,14 10,14 C9.58605145,14 9.25047985,13.6673381 9.25047985,13.256979 L9.25047985,10.7083369 L6.67954513,10.7083369 C6.29342268,10.6686984 6,10.3461424 6,9.96132113 C6,9.57649984 6.29342268,9.25394382 6.67954513,9.21430535 L9.24242049,9.21430535 L9.24242049,6.67365277 C9.28240567,6.2908784 9.60778305,6 9.99597032,6 C10.3841576,6 10.709535,6.2908784 10.7495202,6.67365277 L10.7495202,9.21430535 L13.3204549,9.21430535 C13.7065773,9.25394382 14,9.57649984 14,9.96132113 C14,10.3461424 13.7065773,10.6686984 13.3204549,10.7083369 L13.3204549,10.7083369 Z" id="Path_34201"></path>
      </g>
    </g>
  </symbol>
  <symbol version="1.1" xmlns="http://www.w3.org/2000/svg" xmlns:xlink="http://www.w3.org/1999/xlink" viewBox="0 0 24 24" id="ic-close">
    <title>Iconly/Bulk/Close Square</title>
    <g id="Iconly/Bulk/Close-Square" stroke="none" stroke-width="1" fill="none" fill-rule="evenodd">
      <g id="Group" transform="translate(1.999900, 1.999800)" fill="#000" fill-rule="nonzero">
        <path d="M14.34,0 L5.67,0 C2.28,0 0,2.38 0,5.92 L0,14.09 C0,17.62 2.28,20 5.67,20 L14.34,20 C17.73,20 20,17.62 20,14.09 L20,5.92 C20,2.38 17.73,0 14.34,0" id="Fill-1" fill="#1f6bff"></path>
        <path d="M13.0157,11.7705 L11.2367,9.9925 L13.0147,8.2145 C13.3567,7.8735 13.3567,7.3185 13.0147,6.9775 C12.6727,6.6335 12.1197,6.6345 11.7777,6.9765 L9.9987,8.7545 L8.2197,6.9745 C7.8777,6.6325 7.3237,6.6345 6.9817,6.9745 C6.6407,7.3165 6.6407,7.8715 6.9817,8.2125 L8.7617,9.9925 L6.9857,11.7675 C6.6437,12.1095 6.6437,12.6645 6.9857,13.0045 C7.1567,13.1765 7.3797,13.2615 7.6037,13.2615 C7.8287,13.2615 8.0517,13.1765 8.2227,13.0055 L9.9987,11.2295 L11.7787,13.0085 C11.9497,13.1795 12.1727,13.2645 12.3967,13.2645 C12.6207,13.2645 12.8447,13.1785 13.0157,13.0085 C13.3577,12.6665 13.3577,12.1125 13.0157,11.7705" id="Fill-4"></path>
      </g>
    </g>
  </symbol>
  <symbol fill="none" xmlns="http://www.w3.org/2000/svg" viewBox="0 0 24 24" id="ic-trash">
    <path d="M19.3245 9.4682C19.3245 9.4682 18.7815 16.2032 18.4665 19.0402C18.3165 20.3952 17.4795 21.1892 16.1085 21.2142C14.8215 21.2374 13.7872 21.2499 12.4995 21.25" stroke="#1f6bff" stroke-width="1.5" stroke-linecap="round" stroke-linejoin="round"></path>
    <path d="M5.13379 9.4682C5.13379 9.4682 5.67379 16.1852 5.99079 19.0472C6.13779 20.3782 6.96079 21.1822 8.27979 21.2092C8.85294 21.2213 8.42629 21.2306 8.99976 21.2372" stroke="#1f6bff" stroke-width="1.5" stroke-linecap="round" stroke-linejoin="round"></path>
    <path d="M20.708 6.2397H17.4998M3.75 6.2397H12.229" stroke="#1f6bff" stroke-width="1.5" stroke-linecap="round" stroke-linejoin="round"></path>
    <path d="M17.4406 6.2397C16.6556 6.2397 15.9796 5.6847 15.8256 4.9157L15.5826 3.6997C15.4326 3.1387 14.9246 2.7507 14.3456 2.7507H10.1126C9.53358 2.7507 9.02558 3.1387 8.87558 3.6997L8.63258 4.9157C8.47858 5.6847 7.80258 6.2397 7.01758 6.2397" stroke="#1f6bff" stroke-width="1.5" stroke-linecap="round" stroke-linejoin="round"></path>
  </symbol>
</svg>